<svg xmlns="http://www.w3.org/2000/svg" xmlns:xlink="http://www.w3.org/1999/xlink" width="670" zoomAndPan="magnify" viewBox="0 0 502.5 491.999982" height="656" preserveAspectRatio="xMidYMid meet" version="1.0"><defs><filter x="0%" y="0%" width="100%" height="100%" id="f85907f4f1"><feColorMatrix values="0 0 0 0 1 0 0 0 0 1 0 0 0 0 1 0 0 0 1 0" color-interpolation-filters="sRGB"/></filter><clipPath id="36812713a9"><path d="M 0 0.246094 L 502 0.246094 L 502 491.753906 L 0 491.753906 Z M 0 0.246094 " clip-rule="nonzero"/></clipPath><mask id="13172e8f2d"><g filter="url(#f85907f4f1)"><rect x="-50.25" width="603" fill="#000000" y="-49.199998" height="590.399979" fill-opacity="0.2863"/></g></mask><clipPath id="4484a139e0"><path d="M 5 0.246094 L 498 0.246094 L 498 491.753906 L 5 491.753906 Z M 5 0.246094 " clip-rule="nonzero"/></clipPath><clipPath id="e505e8856a"><path d="M 489.714844 246.246094 C 489.714844 220.574219 502.5 193.328125 494.632812 170.210938 C 486.566406 146.210938 459.222656 131.457031 444.171875 111.492188 C 428.925781 91.328125 422.632812 61.917969 401.679688 47.261719 C 380.925781 32.800781 349.941406 36.046875 325.058594 28.179688 C 300.960938 20.703125 278.039062 0.246094 251.386719 0.246094 C 224.730469 0.246094 201.714844 20.605469 177.714844 28.179688 C 152.828125 35.949219 121.746094 32.703125 100.992188 47.261719 C 80.039062 61.917969 73.746094 91.328125 58.5 111.492188 C 43.351562 131.457031 16.105469 146.210938 7.941406 170.210938 C 0.171875 193.328125 12.859375 220.574219 12.859375 246.246094 C 12.859375 271.917969 0.0742188 299.164062 7.941406 322.277344 C 16.007812 346.277344 43.351562 361.03125 58.402344 381 C 73.648438 401.164062 79.941406 430.574219 100.894531 445.226562 C 121.648438 459.785156 152.632812 456.539062 177.613281 464.308594 C 201.714844 471.785156 224.632812 492.246094 251.285156 492.246094 C 277.941406 492.246094 300.960938 471.882812 324.960938 464.308594 C 349.84375 456.539062 380.925781 459.785156 401.679688 445.226562 C 422.632812 430.574219 428.925781 401.164062 444.171875 381 C 459.320312 361.03125 486.566406 346.277344 494.632812 322.277344 C 502.5 299.0625 489.714844 271.816406 489.714844 246.246094 " clip-rule="nonzero"/></clipPath><clipPath id="1971be1d00"><rect x="0" width="502" y="0" height="492"/></clipPath><clipPath id="5d23b81455"><path d="M 16 419 L 72 419 L 72 476 L 16 476 Z M 16 419 " clip-rule="nonzero"/></clipPath><clipPath id="01c7da0561"><path d="M 0 435.1875 L 55.96875 403.128906 L 88.027344 459.09375 L 32.058594 491.15625 Z M 0 435.1875 " clip-rule="nonzero"/></clipPath><clipPath id="75aadb30e3"><path d="M 0 435.1875 L 55.96875 403.128906 L 88.027344 459.09375 L 32.058594 491.15625 Z M 0 435.1875 " clip-rule="nonzero"/></clipPath><clipPath id="cb148ffa5a"><path d="M 411.15625 74.894531 L 464.40625 74.894531 L 464.40625 128.144531 L 411.15625 128.144531 Z M 411.15625 74.894531 " clip-rule="nonzero"/></clipPath></defs><g clip-path="url(#36812713a9)"><g mask="url(#13172e8f2d)"><g transform="matrix(1, 0, 0, 1, 0, 0.000000000000063033)"><g clip-path="url(#1971be1d00)"><g clip-path="url(#4484a139e0)"><g clip-path="url(#e505e8856a)"><path fill="#ff8dba" d="M 0.0742188 0.246094 L 502.367188 0.246094 L 502.367188 492.046875 L 0.0742188 492.046875 Z M 0.0742188 0.246094 " fill-opacity="1" fill-rule="nonzero"/></g></g></g></g></g></g><g clip-path="url(#5d23b81455)"><g clip-path="url(#01c7da0561)"><g clip-path="url(#75aadb30e3)"><path fill="#ffffff" d="M 27.984375 419.15625 C 38.457031 443.765625 37.511719 447.242188 16.03125 463.171875 C 16.082031 463.148438 16.132812 463.128906 16.183594 463.105469 C 40.652344 452.703125 44.148438 453.6875 60.042969 475.125 C 49.570312 450.515625 50.515625 447.039062 72 431.113281 C 47.390625 441.585938 43.914062 440.640625 27.984375 419.15625 Z M 27.984375 419.15625 " fill-opacity="1" fill-rule="nonzero"/></g></g></g><g clip-path="url(#cb148ffa5a)"><path fill="#ffffff" d="M 437.78125 74.894531 C 435.183594 96.820312 433.082031 98.921875 411.15625 101.519531 C 411.199219 101.523438 411.246094 101.527344 411.289062 101.535156 L 411.292969 101.535156 C 433.089844 104.121094 435.191406 106.261719 437.78125 128.144531 C 440.375 106.214844 442.476562 104.113281 464.40625 101.519531 C 442.476562 98.921875 440.375 96.820312 437.78125 74.894531 Z M 437.78125 74.894531 " fill-opacity="1" fill-rule="nonzero"/></g></svg>