<svg xmlns="http://www.w3.org/2000/svg" xmlns:xlink="http://www.w3.org/1999/xlink" width="500" zoomAndPan="magnify" viewBox="0 0 375 374.999991" height="500" preserveAspectRatio="xMidYMid meet" version="1.0"><defs><clipPath id="1086402d89"><path d="M 3.75 134 L 22 134 L 22 152 L 3.75 152 Z M 3.75 134 " clip-rule="nonzero"/></clipPath></defs><path fill="#0158db" d="M 96.710938 83.097656 L 144.5 134.941406 C 158.113281 121.457031 168.988281 106.160156 177.082031 89.804688 C 151.1875 81.195312 123.574219 78.949219 96.710938 83.097656 Z M 96.710938 83.097656 " fill-opacity="1" fill-rule="nonzero"/><path fill="#0158db" d="M 179.074219 191.027344 L 143.785156 152.722656 C 127.925781 166.394531 110.125 177.082031 91.101562 184.519531 C 97.828125 205.171875 108.609375 224.816406 123.519531 242.230469 Z M 179.074219 191.027344 " fill-opacity="1" fill-rule="nonzero"/><path fill="#0158db" d="M 153.015625 144.207031 L 188.304688 182.511719 L 243.875 131.304688 C 227.722656 115.023438 208.992188 102.652344 188.90625 94.261719 C 180.097656 112.390625 168.109375 129.3125 153.015625 144.207031 Z M 153.015625 144.207031 " fill-opacity="1" fill-rule="nonzero"/><path fill="#0158db" d="M 252.394531 140.535156 L 196.820312 191.738281 L 228.269531 225.875 C 244.953125 211.53125 263.539062 200.710938 283.113281 193.382812 C 283.113281 193.382812 283.113281 193.382812 283.113281 193.367188 C 276.367188 174.507812 266.136719 156.5625 252.394531 140.535156 C 252.410156 140.554688 252.410156 140.535156 252.394531 140.535156 Z M 252.394531 140.535156 " fill-opacity="1" fill-rule="nonzero"/><path fill="#0158db" d="M 286.96875 205.371094 C 269.09375 212.152344 252.101562 222.058594 236.824219 235.140625 L 288.449219 291.171875 C 295.191406 263.011719 294.753906 233.40625 286.96875 205.371094 Z M 286.96875 205.371094 " fill-opacity="1" fill-rule="nonzero"/><path fill="#0158db" d="M 177.121094 297.914062 C 157.308594 288.941406 138.851562 276.296875 122.789062 259.996094 L 83.9375 295.792969 C 107.128906 318.949219 136.3125 332.820312 166.703125 337.222656 C 168.714844 323.664062 172.222656 310.503906 177.121094 297.914062 C 177.121094 297.933594 177.121094 297.933594 177.121094 297.914062 Z M 177.121094 297.914062 " fill-opacity="1" fill-rule="nonzero"/><path fill="#0158db" d="M 261.640625 132.019531 C 276.605469 149.398438 287.71875 168.878906 295.046875 189.363281 C 308.128906 185.472656 321.542969 183.097656 335.03125 182.183594 C 333.148438 151.515625 321.691406 121.253906 300.492188 96.21875 Z M 261.640625 132.019531 " fill-opacity="1" fill-rule="nonzero"/><path fill="#0158db" d="M 187.589844 200.273438 L 132.019531 251.480469 C 146.855469 266.445312 163.871094 278.105469 182.089844 286.382812 C 191.136719 267.230469 203.582031 249.652344 219.042969 234.410156 Z M 187.589844 200.273438 " fill-opacity="1" fill-rule="nonzero"/><path fill="#0158db" d="M 87.628906 172.351562 C 104.808594 165.515625 120.890625 155.8125 135.253906 143.476562 L 87.464844 91.613281 C 81.125 118.074219 81.125 145.816406 87.628906 172.351562 Z M 87.628906 172.351562 " fill-opacity="1" fill-rule="nonzero"/><path fill="#0158db" d="M 40.792969 183.609375 C 40.574219 187.773438 40.519531 191.941406 40.664062 196.105469 Z M 40.792969 183.609375 " fill-opacity="1" fill-rule="nonzero"/><path fill="#0158db" d="M 114.253906 250.746094 C 98.136719 232.035156 86.496094 210.890625 79.222656 188.667969 C 66.761719 192.5625 53.839844 195.121094 40.664062 196.234375 C 41.707031 228.378906 53.199219 260.324219 75.421875 286.546875 Z M 114.253906 250.746094 " fill-opacity="1" fill-rule="nonzero"/><path fill="#0158db" d="M 73.066406 99.050781 C 53.199219 123.703125 42.382812 153.417969 40.792969 183.589844 C 52.742188 182.472656 64.421875 180.117188 75.734375 176.570312 C 69.320312 151.1875 68.460938 124.707031 73.066406 99.050781 Z M 73.066406 99.050781 " fill-opacity="1" fill-rule="nonzero"/><path fill="#0158db" d="M 188.742188 302.738281 C 184.300781 314.195312 181.105469 326.183594 179.222656 338.519531 C 179.222656 338.519531 179.222656 338.519531 179.238281 338.519531 C 210.910156 340.402344 243.144531 332.105469 270.628906 313.429688 C 243.019531 316.097656 214.949219 312.496094 188.742188 302.738281 Z M 188.742188 302.738281 " fill-opacity="1" fill-rule="nonzero"/><path fill="#0158db" d="M 182.253906 78.292969 C 186.75 67.21875 190.023438 55.722656 192.105469 44.0625 C 161.933594 43.203125 131.46875 51.574219 105.300781 69.335938 C 131.195312 66.851562 157.492188 69.867188 182.253906 78.292969 Z M 182.253906 78.292969 " fill-opacity="1" fill-rule="nonzero"/><path fill="#0158db" d="M 298.902344 201.351562 C 306.484375 228.234375 307.746094 256.449219 302.832031 283.734375 C 323.664062 257.875 334.554688 226.460938 335.285156 194.773438 C 323.023438 195.632812 310.796875 197.824219 298.902344 201.351562 Z M 298.902344 201.351562 " fill-opacity="1" fill-rule="nonzero"/><path fill="#0158db" d="M 194.023438 82.75 C 215.625 91.816406 235.78125 105.171875 253.125 122.773438 L 291.976562 86.972656 C 267.632812 62.667969 236.695312 48.59375 204.714844 44.957031 C 202.523438 57.84375 198.957031 70.523438 194.023438 82.75 Z M 194.023438 82.75 " fill-opacity="1" fill-rule="nonzero"/><path fill="#0158db" d="M 279.203125 299.667969 L 227.574219 243.640625 C 213.46875 257.621094 202.082031 273.664062 193.75 291.171875 C 221.070312 301.257812 250.566406 304.109375 279.203125 299.667969 Z M 279.203125 299.667969 " fill-opacity="1" fill-rule="nonzero"/><g clip-path="url(#1086402d89)"><path fill="#0158db" d="M 21.292969 142.800781 C 21.292969 147.625 17.382812 151.535156 12.558594 151.535156 C 7.734375 151.535156 3.824219 147.625 3.824219 142.800781 C 3.824219 137.976562 7.734375 134.066406 12.558594 134.066406 C 17.382812 134.066406 21.292969 137.976562 21.292969 142.800781 Z M 21.292969 142.800781 " fill-opacity="1" fill-rule="nonzero"/></g><path fill="#f56aa1" d="M 83.59375 58.296875 C 86.0625 47.753906 79.519531 37.203125 68.976562 34.730469 C 58.433594 32.257812 47.882812 38.804688 45.410156 49.347656 C 42.941406 59.890625 49.484375 70.441406 60.027344 72.914062 C 70.570312 75.382812 81.121094 68.839844 83.59375 58.296875 Z M 83.59375 58.296875 " fill-opacity="1" fill-rule="nonzero"/><path fill="#0158db" d="M 335.285156 347.4375 C 340.078125 347.4375 343.964844 343.550781 343.964844 338.757812 C 343.964844 333.964844 340.078125 330.078125 335.285156 330.078125 C 330.492188 330.078125 326.605469 333.964844 326.605469 338.757812 C 326.605469 343.550781 330.492188 347.4375 335.285156 347.4375 Z M 335.285156 347.4375 " fill-opacity="1" fill-rule="nonzero"/><path fill="#f7528e" d="M 187.9375 16.011719 C 196.546875 15.867188 205.191406 16.160156 213.777344 17.164062 C 222.347656 18.296875 230.882812 19.867188 239.253906 22.226562 C 247.605469 24.601562 255.828125 27.488281 263.757812 31.089844 C 271.671875 34.726562 279.382812 38.820312 286.730469 43.535156 C 294.039062 48.304688 301.019531 53.585938 307.636719 59.324219 C 314.160156 65.152344 320.320312 71.402344 326.039062 78.054688 C 331.703125 84.761719 336.820312 91.90625 341.460938 99.363281 C 346.085938 106.835938 350.070312 114.710938 353.578125 122.773438 C 367.558594 155.136719 371.25 191.792969 364.597656 226.535156 C 357.945312 261.3125 340.492188 293.875 315.496094 318.949219 C 290.421875 343.964844 257.855469 361.398438 223.082031 368.070312 C 188.359375 374.722656 151.683594 371.03125 119.316406 357.050781 C 111.257812 353.523438 103.382812 349.539062 95.910156 344.917969 C 88.453125 340.257812 81.289062 335.140625 74.601562 329.492188 C 67.949219 323.773438 61.679688 317.632812 55.867188 311.089844 C 50.128906 304.476562 44.847656 297.492188 40.078125 290.183594 C 35.363281 282.839844 31.269531 275.109375 27.632812 267.195312 C 24.035156 259.265625 21.148438 251.039062 18.773438 242.6875 C 16.433594 234.335938 14.84375 225.785156 13.710938 217.214844 C 12.703125 208.625 12.414062 199.980469 12.558594 191.375 C 12.925781 199.980469 13.710938 208.550781 15.207031 216.996094 C 16.761719 225.417969 18.71875 233.769531 21.421875 241.886719 C 24.179688 249.960938 27.304688 257.910156 31.144531 265.53125 C 35 273.117188 39.292969 280.480469 44.171875 287.441406 C 63.488281 315.386719 91.082031 337.277344 122.332031 349.796875 C 130.136719 352.957031 138.195312 355.40625 146.347656 357.417969 C 154.515625 359.40625 162.828125 360.667969 171.179688 361.507812 C 179.550781 362.242188 187.957031 362.332031 196.328125 361.949219 C 204.695312 361.382812 213.03125 360.414062 221.234375 358.714844 C 229.402344 356.921875 237.535156 354.820312 245.394531 351.953125 C 253.234375 349.046875 260.925781 345.71875 268.292969 341.738281 C 275.621094 337.714844 282.726562 333.257812 289.433594 328.269531 C 296.105469 323.222656 302.429688 317.722656 308.386719 311.859375 C 314.269531 305.917969 319.753906 299.578125 324.816406 292.90625 C 329.804688 286.183594 334.261719 279.089844 338.28125 271.761719 C 342.265625 264.398438 345.609375 256.707031 348.5 248.867188 C 351.367188 241.007812 353.503906 232.894531 355.277344 224.707031 C 356.976562 216.5 357.945312 208.167969 358.511719 199.796875 C 358.894531 191.410156 358.804688 183.003906 358.074219 174.652344 C 357.234375 166.300781 355.953125 157.988281 353.980469 149.816406 C 351.96875 141.667969 349.523438 133.589844 346.359375 125.804688 C 333.824219 94.554688 311.949219 66.960938 283.988281 47.644531 C 277.027344 42.785156 269.679688 38.488281 262.078125 34.632812 C 254.476562 30.796875 246.507812 27.691406 238.429688 24.910156 C 230.316406 22.207031 221.984375 20.25 213.542969 18.699219 C 205.117188 17.164062 196.546875 16.378906 187.9375 16.011719 Z M 187.9375 16.011719 " fill-opacity="1" fill-rule="nonzero"/><path fill="#0158db" d="M 162.675781 12.382812 C 163.582031 7.050781 159.992188 1.992188 154.660156 1.085938 C 149.328125 0.179688 144.269531 3.769531 143.363281 9.101562 C 142.457031 14.4375 146.042969 19.496094 151.378906 20.402344 C 156.710938 21.308594 161.769531 17.71875 162.675781 12.382812 Z M 162.675781 12.382812 " fill-opacity="1" fill-rule="nonzero"/></svg>